<svg width="24" height="24" viewBox="0 0 24 24" fill="none" xmlns="http://www.w3.org/2000/svg">
<path d="M8 3V7H21L18 17H6V4H4C3.73478 4 3.48043 3.89464 3.29289 3.70711C3.10536 3.51957 3 3.26522 3 3C3 2.73478 3.10536 2.48043 3.29289 2.29289C3.48043 2.10536 3.73478 2 4 2H7C7.26522 2 7.51957 2.10536 7.70711 2.29289C7.89464 2.48043 8 2.73478 8 3ZM6 20.5C6 20.7967 6.08797 21.0867 6.2528 21.3334C6.41762 21.58 6.65189 21.7723 6.92597 21.8858C7.20006 21.9993 7.50166 22.0291 7.79264 21.9712C8.08361 21.9133 8.35088 21.7704 8.56066 21.5607C8.77044 21.3509 8.9133 21.0836 8.97118 20.7926C9.02906 20.5017 8.99935 20.2001 8.88582 19.926C8.77229 19.6519 8.58003 19.4176 8.33335 19.2528C8.08668 19.088 7.79667 19 7.5 19C7.10218 19 6.72064 19.158 6.43934 19.4393C6.15804 19.7206 6 20.1022 6 20.5ZM15 20.5C15 20.7967 15.088 21.0867 15.2528 21.3334C15.4176 21.58 15.6519 21.7723 15.926 21.8858C16.2001 21.9993 16.5017 22.0291 16.7926 21.9712C17.0836 21.9133 17.3509 21.7704 17.5607 21.5607C17.7704 21.3509 17.9133 21.0836 17.9712 20.7926C18.0291 20.5017 17.9993 20.2001 17.8858 19.926C17.7723 19.6519 17.58 19.4176 17.3334 19.2528C17.0867 19.088 16.7967 19 16.5 19C16.1022 19 15.7206 19.158 15.4393 19.4393C15.158 19.7206 15 20.1022 15 20.5Z" fill="#FAFAFA"/>
</svg>
