<svg width="24" height="24" viewBox="0 0 24 24" fill="none" xmlns="http://www.w3.org/2000/svg">
<path d="M4 8.931V20C4 20.2652 4.10536 20.5196 4.2929 20.7071C4.48043 20.8946 4.73479 21 5 21H19C19.2652 21 19.5196 20.8946 19.7071 20.7071C19.8946 20.5196 20 20.2652 20 20V8.931C19.9998 8.76745 19.9595 8.60643 19.8826 8.46208C19.8057 8.31772 19.6946 8.19443 19.559 8.103L12 3L4.441 8.1C4.30497 8.19171 4.19358 8.31548 4.11668 8.4604C4.03977 8.60532 3.9997 8.76694 4 8.931ZM10 14C10 13.7348 10.1054 13.4804 10.2929 13.2929C10.4804 13.1054 10.7348 13 11 13H13C13.2652 13 13.5196 13.1054 13.7071 13.2929C13.8946 13.4804 14 13.7348 14 14V19H10V14Z" fill="#FAFAFA"/>
</svg>
