<svg width="247" height="58" viewBox="0 0 247 58" fill="none" xmlns="http://www.w3.org/2000/svg">
<path d="M2.21549 46.4984V13.266H13.9798C17.9529 13.266 21.409 13.9528 24.3483 15.3264C27.3023 16.7 29.5916 18.6349 31.2163 21.131C32.8558 23.6124 33.6755 26.5294 33.6755 29.8822C33.6755 33.2202 32.8558 36.1373 31.2163 38.6334C29.5916 41.1295 27.3023 43.0644 24.3483 44.438C21.409 45.8116 17.9529 46.4984 13.9798 46.4984H2.21549ZM10.9888 38.855H14.2678C16.5128 38.855 18.4107 38.5079 19.9616 37.8137C21.5124 37.1195 22.6866 36.1078 23.4842 34.7785C24.2966 33.4344 24.7027 31.8023 24.7027 29.8822C24.7027 27.9474 24.2966 26.3153 23.4842 24.986C22.6866 23.6567 21.5124 22.6449 19.9616 21.9508C18.4107 21.2566 16.5128 20.9095 14.2678 20.9095H10.9888V38.855ZM45.9936 13.266V46.4984H37.2203V13.266H45.9936ZM73.6651 22.8591C72.8676 22.032 71.8927 21.3895 70.7407 20.9316C69.5886 20.4738 68.348 20.2448 67.0187 20.2448C65.7337 20.2448 64.5668 20.4664 63.5182 20.9095C62.4843 21.3378 61.5907 21.9655 60.8374 22.7926C60.0989 23.6198 59.5229 24.6093 59.1093 25.7614C58.7106 26.9135 58.5112 28.2132 58.5112 29.6607C58.5112 31.1377 58.7253 32.4817 59.1537 33.6929C59.582 34.904 60.1949 35.9453 60.9925 36.8167C61.7901 37.6734 62.7354 38.338 63.8283 38.8107C64.9361 39.2833 66.162 39.5196 67.5061 39.5196C68.5104 39.5196 69.4262 39.3867 70.2533 39.1208C71.0804 38.855 71.8115 38.4636 72.4466 37.9466C73.0817 37.4297 73.6208 36.7946 74.0639 36.0413C74.507 35.2732 74.8467 34.4018 75.083 33.427H67.1294V26.7805H82.793L83.0367 30.1259C83.0367 32.6516 82.6526 34.9631 81.8846 37.0604C81.1313 39.143 80.0531 40.9375 78.65 42.4441C77.2468 43.9506 75.5705 45.1174 73.6208 45.9445C71.686 46.7569 69.5295 47.1631 67.1516 47.1631C64.6702 47.1631 62.3587 46.7273 60.2171 45.8559C58.0902 44.9697 56.2218 43.7438 54.6119 42.1782C53.0167 40.5978 51.7687 38.7516 50.8677 36.6395C49.9815 34.5274 49.5384 32.2454 49.5384 29.7936C49.5384 27.3713 49.9741 25.1189 50.8456 23.0363C51.717 20.9538 52.9355 19.1297 54.5011 17.5641C56.0667 15.9985 57.8908 14.7799 59.9734 13.9085C62.0707 13.0371 64.3379 12.6014 66.775 12.6014C69.0643 12.6014 71.2946 13.0002 73.4657 13.7977C75.6369 14.5953 77.5866 15.7326 79.3146 17.2096L73.6651 22.8591Z" fill="black"/>
<path d="M95.759 12.1101L101.473 44.8476L92.8304 46.3561L87.1163 13.6186L95.759 12.1101Z" fill="black"/>
<path d="M157.398 46.4984H148.625V25.85L142.178 40.9154H135.708L129.284 25.8943V46.4984H120.51V13.266H131.588L138.943 31.0343L146.321 13.266H157.398V46.4984ZM169.052 46.4984H159.857L172.84 13.266H182.034L194.995 46.4984H185.801L183.652 40.583H171.201L169.052 46.4984ZM173.992 32.9396H180.882L177.426 23.4573L173.992 32.9396ZM220.03 46.4984H197.432V13.266H206.205V38.855H220.03V46.4984ZM245.287 46.4984H222.689V13.266H231.462V38.855H245.287V46.4984Z" fill="black"/>
</svg>
