<svg width="152" height="37" viewBox="0 0 152 37" fill="none" xmlns="http://www.w3.org/2000/svg">
<path d="M1.36719 29V8.49219H8.62695C11.0788 8.49219 13.2116 8.91601 15.0254 9.76367C16.8483 10.6113 18.2611 11.8053 19.2637 13.3457C20.2754 14.877 20.7813 16.6771 20.7813 18.7461C20.7813 20.806 20.2754 22.6061 19.2637 24.1465C18.2611 25.6868 16.8483 26.8809 15.0254 27.7285C13.2116 28.5762 11.0788 29 8.62695 29H1.36719ZM6.78125 24.2832H8.80469C10.1901 24.2832 11.3613 24.069 12.3184 23.6406C13.2754 23.2122 14 22.5879 14.4922 21.7676C14.9935 20.9382 15.2441 19.931 15.2441 18.7461C15.2441 17.5521 14.9935 16.5449 14.4922 15.7246C14 14.9043 13.2754 14.2799 12.3184 13.8516C11.3613 13.4232 10.1901 13.209 8.80469 13.209H6.78125V24.2832ZM28.3828 8.49219V29H22.9688V8.49219H28.3828ZM45.459 14.4121C44.9668 13.9017 44.3652 13.5052 43.6543 13.2227C42.9434 12.9401 42.1777 12.7988 41.3574 12.7988C40.5645 12.7988 39.8444 12.9355 39.1973 13.209C38.5592 13.4733 38.0078 13.8607 37.543 14.3711C37.0872 14.8815 36.7318 15.4922 36.4766 16.2031C36.2305 16.9141 36.1074 17.7161 36.1074 18.6094C36.1074 19.5208 36.2396 20.3503 36.5039 21.0977C36.7682 21.8451 37.1465 22.4876 37.6387 23.0254C38.1309 23.554 38.7142 23.9642 39.3887 24.2559C40.0723 24.5475 40.8288 24.6934 41.6582 24.6934C42.278 24.6934 42.8431 24.6113 43.3535 24.4473C43.8639 24.2832 44.3151 24.0417 44.707 23.7227C45.099 23.4036 45.4316 23.0117 45.7051 22.5469C45.9785 22.0729 46.1882 21.5352 46.334 20.9336H41.4258V16.832H51.0918L51.2422 18.8965C51.2422 20.4551 51.0052 21.8815 50.5313 23.1758C50.0664 24.4609 49.401 25.5684 48.5352 26.498C47.6693 27.4277 46.6348 28.1478 45.4316 28.6582C44.2376 29.1595 42.9069 29.4102 41.4395 29.4102C39.9082 29.4102 38.4818 29.1413 37.1602 28.6035C35.8477 28.0566 34.6947 27.3001 33.7012 26.334C32.7168 25.3587 31.9466 24.2194 31.3906 22.916C30.8438 21.6126 30.5703 20.2044 30.5703 18.6914C30.5703 17.1966 30.8392 15.8066 31.377 14.5215C31.9147 13.2363 32.6667 12.1107 33.6328 11.1445C34.599 10.1784 35.7246 9.42643 37.0098 8.88867C38.304 8.35091 39.7031 8.08203 41.207 8.08203C42.6198 8.08203 43.9961 8.32812 45.3359 8.82031C46.6758 9.3125 47.8789 10.0143 48.9453 10.9258L45.459 14.4121Z" fill="white"/>
<path d="M59.1327 7.77543L62.6589 27.9778L57.3255 28.9087L53.7993 8.70635L59.1327 7.77543Z" fill="white"/>
<path d="M97.1309 29H91.7168V16.2578L87.7383 25.5547H83.7461L79.7813 16.2852V29H74.3672V8.49219H81.2031L85.7422 19.457L90.2949 8.49219H97.1309V29ZM104.322 29H98.6484L106.66 8.49219H112.334L120.332 29H114.658L113.332 25.3496H105.648L104.322 29ZM107.371 20.6328H111.623L109.49 14.7812L107.371 20.6328ZM135.781 29H121.836V8.49219H127.25V24.2832H135.781V29ZM151.367 29H137.422V8.49219H142.836V24.2832H151.367V29Z" fill="white"/>
</svg>
