<svg width="16" height="16" viewBox="0 0 16 16" fill="none" xmlns="http://www.w3.org/2000/svg">
<path d="M8.00017 1.33334C6.68162 1.33334 5.39269 1.72433 4.29636 2.45687C3.20004 3.18941 2.34555 4.23061 1.84097 5.44878C1.33638 6.66695 1.20436 8.0074 1.4616 9.3006C1.71883 10.5938 2.35377 11.7817 3.28612 12.714C4.21847 13.6464 5.40636 14.2813 6.69956 14.5386C7.99277 14.7958 9.33321 14.6638 10.5514 14.1592C11.7696 13.6546 12.8108 12.8001 13.5433 11.7038C14.2758 10.6075 14.6668 9.31854 14.6668 8C14.6668 7.12452 14.4944 6.25762 14.1594 5.44878C13.8243 4.63994 13.3333 3.90501 12.7142 3.28596C12.0952 2.6669 11.3602 2.17584 10.5514 1.84081C9.74255 1.50577 8.87564 1.33334 8.00017 1.33334ZM10.4715 9.52867C10.5352 9.59017 10.586 9.66373 10.6209 9.74507C10.6558 9.8264 10.6742 9.91388 10.675 10.0024C10.6758 10.0909 10.6589 10.1787 10.6254 10.2606C10.5919 10.3426 10.5424 10.417 10.4798 10.4796C10.4172 10.5422 10.3427 10.5917 10.2608 10.6252C10.1789 10.6587 10.0911 10.6756 10.0026 10.6748C9.91405 10.6741 9.82656 10.6557 9.74523 10.6207C9.66389 10.5858 9.59033 10.535 9.52883 10.4713L8.00017 8.94267L6.4715 10.4713C6.34576 10.5928 6.17736 10.66 6.00256 10.6585C5.82777 10.6569 5.66056 10.5868 5.53695 10.4632C5.41335 10.3396 5.34324 10.1724 5.34172 9.9976C5.3402 9.82281 5.40739 9.6544 5.52883 9.52867L7.0575 8L5.52883 6.47134C5.40739 6.3456 5.3402 6.1772 5.34172 6.0024C5.34324 5.8276 5.41335 5.6604 5.53695 5.53679C5.66056 5.41319 5.82777 5.34307 6.00256 5.34155C6.17736 5.34003 6.34576 5.40723 6.4715 5.52867L8.00017 7.05734L9.52883 5.52867C9.65457 5.40723 9.82297 5.34003 9.99777 5.34155C10.1726 5.34307 10.3398 5.41319 10.4634 5.53679C10.587 5.6604 10.6571 5.8276 10.6586 6.0024C10.6601 6.1772 10.5929 6.3456 10.4715 6.47134L8.94283 8L10.4715 9.52867Z" fill="black" fill-opacity="0.55"/>
</svg>
