<svg width="18" height="18" viewBox="0 0 18 18" fill="none" xmlns="http://www.w3.org/2000/svg">
<path d="M3.75 16.5H14.25C14.6478 16.5 15.0294 16.342 15.3107 16.0607C15.592 15.7794 15.75 15.3978 15.75 15V8.25C15.75 7.85218 15.592 7.47064 15.3107 7.18934C15.0294 6.90804 14.6478 6.75 14.25 6.75H12.75V5.25C12.75 4.25544 12.3549 3.30161 11.6517 2.59835C10.9484 1.89509 9.99456 1.5 9 1.5C8.00544 1.5 7.05161 1.89509 6.34835 2.59835C5.64509 3.30161 5.25 4.25544 5.25 5.25V6.75H3.75C3.35218 6.75 2.97064 6.90804 2.68934 7.18934C2.40804 7.47064 2.25 7.85218 2.25 8.25V15C2.25 15.3978 2.40804 15.7794 2.68934 16.0607C2.97064 16.342 3.35218 16.5 3.75 16.5ZM9 13.125C8.70333 13.125 8.41332 13.037 8.16665 12.8722C7.91997 12.7074 7.72771 12.4731 7.61418 12.199C7.50065 11.9249 7.47094 11.6233 7.52882 11.3324C7.5867 11.0414 7.72956 10.7741 7.93934 10.5643C8.14912 10.3546 8.41639 10.2117 8.70736 10.1538C8.99834 10.0959 9.29994 10.1256 9.57403 10.2392C9.84811 10.3527 10.0824 10.545 10.2472 10.7916C10.412 11.0383 10.5 11.3283 10.5 11.625C10.5 12.0228 10.342 12.4044 10.0607 12.6857C9.77936 12.967 9.39782 13.125 9 13.125ZM6.75 6.75V5.25C6.75 4.65326 6.98705 4.08097 7.40901 3.65901C7.83097 3.23705 8.40326 3 9 3C9.59674 3 10.169 3.23705 10.591 3.65901C11.0129 4.08097 11.25 4.65326 11.25 5.25V6.75H6.75Z" fill="#FAFAFA"/>
</svg>
