<svg width="17" height="17" viewBox="0 0 17 17" fill="none" xmlns="http://www.w3.org/2000/svg">
<path d="M7.10812 12.7989C8.08567 12.7998 9.04676 12.5472 9.89754 12.0657L12.2577 14.4259C12.5452 14.7134 12.9352 14.875 13.3418 14.875C13.7484 14.875 14.1384 14.7134 14.4259 14.4259C14.7134 14.1384 14.875 13.7484 14.875 13.3418C14.875 12.9352 14.7134 12.5452 14.4259 12.2577L12.0657 9.89754C12.7407 8.69927 12.9587 7.29709 12.6795 5.95046C12.4004 4.60382 11.6428 3.4039 10.5472 2.57272C9.45148 1.74154 8.09181 1.33538 6.71976 1.42939C5.34771 1.5234 4.05615 2.11122 3.08408 3.08408C2.28818 3.87994 1.74617 4.89395 1.52658 5.99787C1.30699 7.10179 1.41968 8.24603 1.85041 9.2859C2.28115 10.3258 3.01057 11.2145 3.94643 11.8399C4.8823 12.4652 5.98258 12.7989 7.10812 12.7989ZM4.08566 4.08566C4.78489 3.38676 5.7048 2.95191 6.68869 2.8552C7.67257 2.7585 8.65955 3.00592 9.48147 3.55531C10.3034 4.10469 10.9094 4.92207 11.1962 5.86816C11.4831 6.81426 11.433 7.83054 11.0546 8.74387C10.6762 9.6572 9.99278 10.4111 9.12086 10.877C8.24893 11.343 7.24242 11.4922 6.2728 11.2993C5.30318 11.1064 4.43044 10.5832 3.80328 9.81901C3.17612 9.05478 2.83334 8.09674 2.83333 7.10812C2.83161 6.54651 2.94143 5.99015 3.15641 5.47131C3.37138 4.95247 3.68724 4.48148 4.08566 4.08566Z" fill="black"/>
</svg>
