<svg width="24" height="24" viewBox="0 0 24 24" fill="none" xmlns="http://www.w3.org/2000/svg">
<path d="M4.02766 12H4.32016C4.36884 11.9973 4.41457 11.9758 4.44766 11.94C4.47851 11.9103 4.49722 11.8702 4.50016 11.8275V11.0775H5.40016C5.424 11.079 5.44787 11.075 5.46996 11.0659C5.49205 11.0569 5.51178 11.0429 5.52766 11.025C5.54491 11.0103 5.5586 10.9918 5.5677 10.971C5.57679 10.9503 5.58105 10.9277 5.58016 10.905V10.6575C5.58694 10.629 5.58562 10.5991 5.57634 10.5713C5.56707 10.5434 5.55021 10.5188 5.52766 10.5C5.51252 10.4808 5.49312 10.4654 5.47099 10.4549C5.44886 10.4445 5.42461 10.4394 5.40016 10.44H4.50016V9.96H5.47516C5.52263 9.95861 5.56797 9.93995 5.60266 9.9075C5.62262 9.88704 5.63719 9.86193 5.64504 9.83444C5.6529 9.80694 5.6538 9.77793 5.64766 9.75V9.525C5.64766 9.47726 5.62869 9.43148 5.59494 9.39772C5.56118 9.36397 5.5154 9.345 5.46766 9.345H4.02766C4.00381 9.34351 3.97995 9.34746 3.95786 9.35656C3.93577 9.36565 3.91604 9.37966 3.90016 9.3975C3.86771 9.43219 3.84904 9.47753 3.84766 9.525V11.8275C3.84947 11.8727 3.86821 11.9155 3.90016 11.9475C3.91604 11.9654 3.93577 11.9794 3.95786 11.9884C3.97995 11.9975 4.00381 12.0015 4.02766 12Z" fill="black"/>
<path d="M6.00022 12H6.30772C6.33217 12.0006 6.35642 11.9955 6.37855 11.9851C6.40068 11.9746 6.42008 11.9592 6.43522 11.94C6.46507 11.9073 6.48119 11.8643 6.48022 11.82V11.07H6.78772L7.19272 11.8575C7.20832 11.8879 7.22856 11.9158 7.25272 11.94C7.27303 11.9613 7.29747 11.9783 7.32454 11.9899C7.35161 12.0015 7.38076 12.0075 7.41022 12.0075H7.71022C7.75508 12.0044 7.79747 11.9858 7.83022 11.955C7.86007 11.9223 7.87619 11.8793 7.87522 11.835C7.8811 11.8078 7.8811 11.7797 7.87522 11.7525L7.44022 10.9425C7.5467 10.8832 7.63887 10.8013 7.71022 10.7025C7.80396 10.5548 7.851 10.3823 7.84522 10.2075C7.85384 10.0871 7.83465 9.96625 7.78914 9.85441C7.74362 9.74257 7.67299 9.64269 7.58272 9.5625C7.38314 9.41002 7.13609 9.33299 6.88522 9.345H6.00022C5.9765 9.34451 5.95293 9.34892 5.93099 9.35796C5.90906 9.36699 5.88922 9.38045 5.87272 9.3975C5.84238 9.43292 5.82634 9.47838 5.82772 9.525V11.8275C5.82675 11.8718 5.84286 11.9148 5.87272 11.9475C5.90701 11.9806 5.95259 11.9993 6.00022 12ZM6.48022 10.5V9.9375H6.85522C6.89709 9.9325 6.93954 9.93662 6.97967 9.94957C7.0198 9.96251 7.05666 9.98398 7.08772 10.0125C7.11531 10.0395 7.1364 10.0725 7.14939 10.1089C7.16238 10.1452 7.16694 10.1841 7.16272 10.2225C7.16539 10.259 7.1608 10.2957 7.14922 10.3305C7.13763 10.3653 7.11928 10.3974 7.09522 10.425C7.02825 10.4807 6.94198 10.5077 6.85522 10.5H6.48022Z" fill="black"/>
<path d="M8.24986 12H9.74986C9.77352 12.0001 9.79696 11.9955 9.81884 11.9864C9.84072 11.9774 9.8606 11.9642 9.87736 11.9475C9.90653 11.9114 9.92241 11.8664 9.92236 11.82V11.5875C9.92383 11.5643 9.92061 11.5411 9.91287 11.5192C9.90514 11.4973 9.89306 11.4771 9.87736 11.46C9.84428 11.4242 9.79855 11.4027 9.74986 11.4H8.72986V10.95H9.65236C9.7001 10.95 9.74588 10.931 9.77964 10.8973C9.8134 10.8635 9.83236 10.8177 9.83236 10.77V10.5525C9.83047 10.526 9.82192 10.5004 9.80749 10.4782C9.79307 10.4559 9.77325 10.4376 9.74986 10.425C9.7331 10.4083 9.71322 10.3951 9.69134 10.3861C9.66946 10.3771 9.64602 10.3724 9.62236 10.3725H8.72986V9.9375H9.74986C9.77352 9.93756 9.79696 9.93295 9.81884 9.92395C9.84072 9.91494 9.8606 9.9017 9.87736 9.885C9.89441 9.8685 9.90787 9.84867 9.91691 9.82673C9.92594 9.80479 9.93035 9.78122 9.92986 9.7575V9.525C9.93082 9.50122 9.92663 9.47751 9.91757 9.45551C9.90851 9.4335 9.89479 9.41371 9.87736 9.3975C9.86148 9.37966 9.84175 9.36565 9.81966 9.35656C9.79757 9.34746 9.7737 9.34351 9.74986 9.345H8.24986C8.22625 9.34383 8.20266 9.34774 8.18069 9.35648C8.15872 9.36521 8.13889 9.37857 8.12253 9.39563C8.10617 9.4127 8.09368 9.43309 8.08588 9.45541C8.07809 9.47773 8.07518 9.50146 8.07736 9.525V11.8275C8.07921 11.8727 8.09797 11.9155 8.12993 11.9474C8.16189 11.9794 8.2047 11.9982 8.24986 12Z" fill="black"/>
<path d="M10.335 12H11.835C11.8595 12.0006 11.8837 11.9955 11.9059 11.9851C11.928 11.9746 11.9474 11.9592 11.9625 11.94C11.9924 11.9073 12.0085 11.8643 12.0075 11.82V11.5875C12.0097 11.5408 11.9935 11.495 11.9625 11.46C11.9467 11.4416 11.9272 11.4267 11.9052 11.4164C11.8832 11.4061 11.8593 11.4005 11.835 11.4H10.8V10.95H11.7225C11.7464 10.9515 11.7703 10.9475 11.7923 10.9384C11.8144 10.9294 11.8342 10.9154 11.85 10.8975C11.8671 10.881 11.8806 10.8612 11.8896 10.8392C11.8986 10.8173 11.903 10.7937 11.9025 10.77V10.5525C11.903 10.5288 11.8986 10.5052 11.8896 10.4833C11.8806 10.4613 11.8671 10.4415 11.85 10.425C11.8342 10.4072 11.8144 10.3932 11.7923 10.3841C11.7703 10.375 11.7464 10.371 11.7225 10.3725H10.8V9.9375H11.7975C11.8212 9.93756 11.8446 9.93295 11.8665 9.92395C11.8884 9.91494 11.9083 9.9017 11.925 9.885C11.9472 9.86988 11.9655 9.8498 11.9785 9.82637C11.9915 9.80293 11.9989 9.77679 12 9.75V9.525C12.001 9.50122 11.9968 9.47751 11.9878 9.45551C11.9787 9.4335 11.965 9.41371 11.9475 9.3975C11.9317 9.37966 11.9119 9.36565 11.8898 9.35656C11.8678 9.34746 11.8439 9.34351 11.82 9.345H10.32C10.2963 9.34452 10.2728 9.34893 10.2508 9.35796C10.2289 9.36699 10.209 9.38045 10.1925 9.3975C10.1622 9.43293 10.1462 9.47839 10.1475 9.525V11.8275C10.1475 11.874 10.1654 11.9187 10.1976 11.9522C10.2297 11.9858 10.2736 12.0056 10.32 12.0075L10.335 12Z" fill="black"/>
<path d="M22.1925 10.6575L19.2675 7.77C19.0872 7.59877 18.8487 7.50229 18.6 7.5H14.25V5.535C14.2666 5.27993 14.1824 5.02853 14.0155 4.83495C13.8485 4.64137 13.6123 4.52109 13.3575 4.5H2.40753C2.15011 4.51734 1.91005 4.636 1.73994 4.83C1.56984 5.024 1.48357 5.27751 1.50003 5.535V16.215C1.48357 16.4725 1.56984 16.726 1.73994 16.92C1.91005 17.114 2.15011 17.2327 2.40753 17.25H3.00003C2.98861 17.3747 2.98861 17.5003 3.00003 17.625C3.00003 18.3212 3.2766 18.9889 3.76888 19.4812C4.26116 19.9734 4.92884 20.25 5.62503 20.25C6.32123 20.25 6.98891 19.9734 7.48119 19.4812C7.97347 18.9889 8.25003 18.3212 8.25003 17.625C8.26146 17.5003 8.26146 17.3747 8.25003 17.25H15.75C15.7386 17.3747 15.7386 17.5003 15.75 17.625C15.75 18.3212 16.0266 18.9889 16.5189 19.4812C17.0112 19.9734 17.6788 20.25 18.375 20.25C19.0712 20.25 19.7389 19.9734 20.2312 19.4812C20.7235 18.9889 21 18.3212 21 17.625C21.0115 17.5003 21.0115 17.3747 21 17.25H21.555C21.817 17.2326 22.0619 17.1142 22.2382 16.9197C22.4145 16.7252 22.5084 16.4699 22.5 16.2075V11.4075C22.501 11.2683 22.4744 11.1304 22.4216 11.0016C22.3688 10.8729 22.2909 10.7559 22.1925 10.6575ZM5.62503 18.75C5.32667 18.75 5.04052 18.6315 4.82954 18.4205C4.61856 18.2095 4.50004 17.9234 4.50003 17.625C4.49931 17.4969 4.52219 17.3698 4.56753 17.25C4.65506 16.9901 4.8408 16.7747 5.08504 16.65C5.16345 16.6061 5.24645 16.5709 5.33254 16.545C5.42777 16.5178 5.52604 16.5027 5.62503 16.5C5.9234 16.5 6.20955 16.6185 6.42053 16.8295C6.63151 17.0405 6.75003 17.3266 6.75003 17.625C6.75003 17.9234 6.63151 18.2095 6.42053 18.4205C6.20955 18.6315 5.9234 18.75 5.62503 18.75ZM12.75 8.5425V15.75H7.45503C6.96688 15.27 6.30967 15.001 5.62503 15.001C4.9404 15.001 4.28319 15.27 3.79503 15.75H3.00003V6H12.75V8.5425ZM18.375 18.75C18.0767 18.75 17.7905 18.6315 17.5795 18.4205C17.3686 18.2095 17.25 17.9234 17.25 17.625C17.25 17.3266 17.3686 17.0405 17.5795 16.8295C17.7905 16.6185 18.0767 16.5 18.375 16.5C18.4743 16.4997 18.573 16.5149 18.6675 16.545C18.8408 16.592 18.9998 16.6809 19.1305 16.8039C19.2613 16.9268 19.3599 17.08 19.4175 17.25C19.4629 17.3698 19.4858 17.4969 19.485 17.625C19.4851 17.9208 19.3686 18.2047 19.1609 18.4152C18.9531 18.6258 18.6708 18.7461 18.375 18.75ZM21 15.75H20.205C19.7172 15.2722 19.0616 15.0046 18.3788 15.0046C17.696 15.0046 17.0404 15.2722 16.5525 15.75H14.25V9H18.4275L21 11.6475V15.75Z" fill="black"/>
</svg>
