<svg width="24" height="24" viewBox="0 0 24 24" fill="none" xmlns="http://www.w3.org/2000/svg">
<path d="M22.1925 9.9075L19.2675 7.02C19.0872 6.84877 18.8487 6.75229 18.6 6.75H14.25V4.785C14.2666 4.52993 14.1824 4.27853 14.0155 4.08495C13.8485 3.89137 13.6123 3.77109 13.3575 3.75H2.40753C2.15011 3.76734 1.91005 3.886 1.73994 4.08C1.56984 4.274 1.48357 4.52751 1.50003 4.785V15.465C1.48357 15.7225 1.56984 15.976 1.73994 16.17C1.91005 16.364 2.15011 16.4827 2.40753 16.5H3.00003C2.98861 16.6247 2.98861 16.7503 3.00003 16.875C3.00003 17.5712 3.2766 18.2389 3.76888 18.7312C4.26116 19.2234 4.92884 19.5 5.62503 19.5C6.32123 19.5 6.98891 19.2234 7.48119 18.7312C7.97347 18.2389 8.25003 17.5712 8.25003 16.875C8.26146 16.7503 8.26146 16.6247 8.25003 16.5H15.75C15.7386 16.6247 15.7386 16.7503 15.75 16.875C15.75 17.5712 16.0266 18.2389 16.5189 18.7312C17.0112 19.2234 17.6788 19.5 18.375 19.5C19.0712 19.5 19.7389 19.2234 20.2312 18.7312C20.7235 18.2389 21 17.5712 21 16.875C21.0115 16.7503 21.0115 16.6247 21 16.5H21.555C21.817 16.4826 22.0619 16.3642 22.2382 16.1697C22.4145 15.9752 22.5084 15.7199 22.5 15.4575V10.6575C22.501 10.5183 22.4744 10.3804 22.4216 10.2516C22.3688 10.1229 22.2909 10.0059 22.1925 9.9075ZM5.62503 18C5.32667 18 5.04052 17.8815 4.82954 17.6705C4.61856 17.4595 4.50003 17.1734 4.50003 16.875C4.49931 16.7469 4.52219 16.6198 4.56753 16.5C4.65506 16.2401 4.8408 16.0247 5.08504 15.9C5.16345 15.8561 5.24645 15.8209 5.33254 15.795C5.42777 15.7678 5.52604 15.7527 5.62503 15.75C5.9234 15.75 6.20955 15.8685 6.42053 16.0795C6.63151 16.2905 6.75003 16.5766 6.75003 16.875C6.75003 17.1734 6.63151 17.4595 6.42053 17.6705C6.20955 17.8815 5.9234 18 5.62503 18ZM7.45503 15C6.96688 14.52 6.30967 14.251 5.62503 14.251C4.9404 14.251 4.28319 14.52 3.79503 15H3.00003V5.25H12.75V15H7.45503ZM19.5 16.875C19.5 17.0975 19.4341 17.315 19.3104 17.5C19.1868 17.685 19.0111 17.8292 18.8056 17.9144C18.6 17.9995 18.3738 18.0218 18.1556 17.9784C17.9373 17.935 17.7369 17.8278 17.5795 17.6705C17.4222 17.5132 17.3151 17.3127 17.2717 17.0945C17.2282 16.8762 17.2505 16.65 17.3357 16.4445C17.4208 16.2389 17.565 16.0632 17.75 15.9396C17.935 15.816 18.1525 15.75 18.375 15.75C18.4743 15.7497 18.573 15.7649 18.6675 15.795C18.8408 15.842 18.9998 15.9309 19.1305 16.0539C19.2613 16.1768 19.3599 16.33 19.4175 16.5C19.468 16.6188 19.496 16.746 19.5 16.875ZM21 15H20.205C19.7172 14.5222 19.0616 14.2546 18.3788 14.2546C17.696 14.2546 17.0404 14.5222 16.5525 15H14.25V8.25H18.4275L21 10.8975V15Z" fill="black"/>
</svg>
